# xmcd CD database file
#
# Track frame offsets:
#	150
#	8271
#	21173
#	38572
#	51345
#	63254
#	78728
#	98175
#	112777
#	126024
#	144079
#	166319
#	178644
#	194146
#	206094
#	216449
#	229530
#	243250
#	254971
#	272780
#
# Disc length: 3695 seconds
#
# Revision: 1
# Processed by: cddbd v1.5.2PL0 Copyright (c) Steve Scherf et al.
# Submitted via: CDex 1.51
#
DISCID=180e6d14
DTITLE=Olney Big Band - Generations
DYEAR=2006
DGENRE=Jazz
TTITLE0='S Wonderful (Opening Theme)
TTITLE1=Coral Reef
TTITLE2=Moonglow
TTITLE3=September in the Rain
TTITLE4=Tequila (Mambo)
TTITLE5=Misty (Jill Sandler, Vocal)
TTITLE6=My Buddy
TTITLE7=Stardust
TTITLE8=A Foggy Day (Jill Sandler, Vocal)
TTITLE9=God Bless The Child (Jill Sandler, Vocal)
TTITLE10=Big Band Blues
TTITLE11=Lushabye
TTITLE12=I've Got You Under My Skin (Brad Bawek, Vocal)
TTITLE13=September Song (Rhumba)
TTITLE14=Blue Skies (Jill Sandler, Vocal)
TTITLE15=Every Day I Have the Blues (Brad Bawek, Vocal)
TTITLE16=Intermission Riff
TTITLE17=Witchcraft (Brad Bawek, Vocal)
TTITLE18=Two O'Clock Jump
TTITLE19='S Wonderful (Closing Theme)
EXTD=YEAR: 2006
EXTT0=
EXTT1=
EXTT2=
EXTT3=
EXTT4=
EXTT5=
EXTT6=
EXTT7=
EXTT8=
EXTT9=
EXTT10=
EXTT11=
EXTT12=
EXTT13=
EXTT14=
EXTT15=
EXTT16=
EXTT17=
EXTT18=
EXTT19=
PLAYORDER=
